# xmcd
# Track frame offsets:
# 150
# 18967
# 38590
# 54417
# 73995
# 92472
# 113057
# 130140
# 147162
# 165980
# 185547
# 201330
# 220890
# 239310
# 259845
# 276932
#
# Disc length: 3919 seconds
# Revision: 0
# Processed by: cddbd v1.5.2PL0 Copyright (c) Steve Scherf et al.
# Submitted via: VisiTrax 2.10.3.257 - For more info visit www.synapsa.com
#
DISCID=e30f4d10
DTITLE=Various Artist - Sound Choice Power PicksCOuntry 6-97
DYEAR=1900
DGENRE=
TTITLE0=DAVID LEE MURPHY - SHE'S REALLY SOMETHING TO SEE
TTITLE1=CARYL MACK PARKER - BETTER LOVE NEXT TIME
TTITLE2=JEFFREY STEELE - A GIRL LIKE YOU
TTITLE3=REBA McINTYRE - WHAT IF IT'S YOU
TTITLE4=DAVID KERSH - ANOTHER YOU
TTITLE5=ALAN JACKSON - WHO'S CHEATIN' WHO
TTITLE6=MARK WILLS - PLACES I'VE NEVER BEEN
TTITLE7=TRAVIS TRITT - SHE'S GOING HOME WITH ME
TTITLE8=DAVID LEE MURPHY - SHE'S REALLY SOMETHING TO SEE
TTITLE9=CARYL MACK PARKER - BETTER LOVE NEXT TIME
TTITLE10=JEFFREY STEELE - A GIRL LIKE YOU
TTITLE11=REBA McINTYRE - WHAT IF IT'S YOU
TTITLE12=DAVID KERSH - ANOTHER YOU
TTITLE13=ALAN JACKSON - WHO'S CHEATIN' WHO
TTITLE14=MARK WILLS - PLACES I'VE NEVER BEEN
TTITLE15=TRAVIS TRITT - SHE'S GOING HOME WITH ME
EXTD=
EXTT0=
EXTT1=
EXTT2=
EXTT3=
EXTT4=
EXTT5=
EXTT6=
EXTT7=
EXTT8=
EXTT9=
EXTT10=
EXTT11=
EXTT12=
EXTT13=
EXTT14=
EXTT15=
PLAYORDER=
